ffmpeg version git-2013-08-16-ec0e0eb Copyright (c) 2000-2013 the FFmpeg developers
  built on Aug 16 2013 10:11:34 with gcc 4.4.7 (GCC) 20120313 (Red Hat 4.4.7-3)
  configuration: --prefix=/root/ffmpeg_build --extra-cflags=-I/root/ffmpeg_build/include --extra-ldflags=-L/root/ffmpeg_build/lib --bindir=/root/bin --extra-libs=-ldl --enable-gpl --enable-nonfree --enable-libfdk_aac --enable-libmp3lame --enable-libopus --enable-libvorbis --enable-libvpx --enable-libx264 --enable-libfreetype --enable-libspeex --enable-libtheora
  libavutil      52. 42.100 / 52. 42.100
  libavcodec     55. 28.100 / 55. 28.100
  libavformat    55. 13.102 / 55. 13.102
  libavdevice    55.  3.100 / 55.  3.100
  libavfilter     3. 82.100 /  3. 82.100
  libswscale      2.  5.100 /  2.  5.100
  libswresample   0. 17.103 /  0. 17.103
  libpostproc    52.  3.100 / 52.  3.100
[mp3 @ 0x33a6260] Header missing
[mp3 @ 0x33a6c60] Header missing
[h264 @ 0x33a7660] non-existing PPS referenced
[h264 @ 0x33a7660] non-existing PPS 0 referenced
[h264 @ 0x33a7660] decode_slice_header error
[h264 @ 0x33a7660] no frame!
[h264 @ 0x33a7660] non-existing PPS referenced
[h264 @ 0x33a7660] non-existing PPS 0 referenced
[h264 @ 0x33a7660] decode_slice_header error
[h264 @ 0x33a7660] no frame!
[h264 @ 0x33a7660] non-existing PPS referenced
[h264 @ 0x33a7660] non-existing PPS 0 referenced
[h264 @ 0x33a7660] decode_slice_header error
[h264 @ 0x33a7660] no frame!
[h264 @ 0x33a7660] non-existing PPS referenced
[h264 @ 0x33a7660] non-existing PPS 0 referenced
[h264 @ 0x33a7660] decode_slice_header error
[h264 @ 0x33a7660] no frame!
[h264 @ 0x33a7660] mmco: unref short failure
    Last message repeated 1 times
[mpegts @ 0x33a2240] PES packet size mismatch
    Last message repeated 2 times
Input #0, mpegts, from '/mnt/media/BISS.ts':
  Duration: 03:46:20.77, start: 27901.627256, bitrate: 20992 kb/s
  Program 1 
    Metadata:
      service_name    : DKDR4
      service_provider: DR MCR
    Stream #0:0[0x100](dan): Audio: mp2 ([3][0][0][0] / 0x0003), 48000 Hz, stereo, s16p, 384 kb/s
    Stream #0:1[0x101](dan): Audio: mp2 ([3][0][0][0] / 0x0003), 48000 Hz, stereo, s16p, 384 kb/s
    Stream #0:2[0x134]: Video: h264 (High) ([27][0][0][0] / 0x001B), yuv420p, 1920x1080 [SAR 1:1 DAR 16:9], 25 fps, 25 tbr, 90k tbn, 50 tbc
-async is forwarded to lavfi similarly to -af aresample=async=1:min_hard_comp=0.100000:first_pts=0.
[libx264 @ 0x33a8ea0] using SAR=1/1
[libx264 @ 0x33a8ea0] frame MB size (120x68) > level limit (3600)
[libx264 @ 0x33a8ea0] DPB size (4 frames, 32640 mbs) > level limit (2 frames, 18000 mbs)
[libx264 @ 0x33a8ea0] MB rate (204000) > level limit (108000)
[libx264 @ 0x33a8ea0] using cpu capabilities: MMX2 SSE2Fast SSSE3 SSE4.2
[libx264 @ 0x33a8ea0] profile High, level 3.1
Output #0, mpegts, to 'udp://54.229.139.162:5002':
  Metadata:
    encoder         : Lavf55.13.102
    Stream #0:0: Video: h264 (libx264), yuv420p, 1920x1080 [SAR 1:1 DAR 16:9], q=-1--1, 5000 kb/s, 90k tbn, 25 tbc
    Stream #0:1(dan): Audio: aac (libfdk_aac), 48000 Hz, stereo, s16, 128 kb/s
Stream mapping:
  Stream #0:2 -> #0:0 (h264 -> libx264)
  Stream #0:1 -> #0:1 (mp2 -> libfdk_aac)
Press [q] to stop, [?] for help
[mp2 @ 0x33a6c60] Header missing
Error while decoding stream #0:1: Invalid data found when processing input
[h264 @ 0x46832a0] reference picture missing during reorder
[h264 @ 0x46832a0] Missing reference picture, default is 0
[h264 @ 0x46832a0] decode_slice_header error
[h264 @ 0x46c80e0] reference picture missing during reorder
[h264 @ 0x46c80e0] Missing reference picture, default is 65546
[h264 @ 0x4736a80] reference picture missing during reorder
[h264 @ 0x4736a80] Missing reference picture, default is 65542
[h264 @ 0x48827c0] mmco: unref short failure
frame=   18 fps=0.0 q=0.0 size=       0kB time=00:00:00.72 bitrate=   0.0kbits/s dup=16 drop=0    frame=   32 fps= 25 q=0.0 size=       0kB time=00:00:01.36 bitrate=   0.0kbits/s dup=16 drop=0    frame=   37 fps= 20 q=27.0 size=     430kB time=00:00:01.51 bitrate=2323.5kbits/s dup=16 drop=0    frame=   49 fps= 21 q=27.0 size=     441kB time=00:00:01.94 bitrate=1860.1kbits/s dup=16 drop=0    frame=   51 fps= 17 q=26.0 size=     519kB time=00:00:02.02 bitrate=2098.7kbits/s dup=16 drop=0    frame=   56 fps= 13 q=24.0 size=     659kB time=00:00:02.30 bitrate=2344.8kbits/s dup=16 drop=0    frame=   60 fps= 12 q=25.0 size=     969kB time=00:00:02.45 bitrate=3234.4kbits/s dup=16 drop=0    frame=   61 fps= 11 q=28.0 size=     989kB time=00:00:02.45 bitrate=3301.9kbits/s dup=16 drop=0    frame=   65 fps= 10 q=27.0 size=    1047kB time=00:00:02.58 bitrate=3321.7kbits/s dup=16 drop=0    frame=   70 fps=9.9 q=27.0 size=    1107kB time=00:00:02.73 bitrate=3321.2kbits/s dup=16 drop=0    frame=   73 fps=9.6 q=26.0 size=    1166kB time=00:00:02.88 bitrate=3316.6kbits/s dup=16 drop=0    frame=   77 fps=9.3 q=25.0 size=    1240kB time=00:00:03.15 bitrate=3216.8kbits/s dup=16 drop=0    frame=   81 fps=9.1 q=24.0 size=    1320kB time=00:00:03.30 bitrate=3270.7kbits/s dup=16 drop=0    frame=   85 fps=9.0 q=25.0 size=    1643kB time=00:00:03.45 bitrate=3894.5kbits/s dup=16 drop=0    frame=   90 fps=8.8 q=27.0 size=    1728kB time=00:00:03.60 bitrate=3926.3kbits/s dup=16 drop=0    frame=   93 fps=8.7 q=27.0 size=    1784kB time=00:00:03.69 bitrate=3959.8kbits/s dup=16 drop=0    frame=   98 fps=8.7 q=26.0 size=    1870kB time=00:00:03.88 bitrate=3944.5kbits/s dup=16 drop=0    frame=  102 fps=8.6 q=26.0 size=    1944kB time=00:00:04.09 bitrate=3888.9kbits/s dup=16 drop=0    frame=  106 fps=8.3 q=23.0 size=    2024kB time=00:00:04.24 bitrate=3905.1kbits/s dup=16 drop=0    frame=  110 fps=8.1 q=25.0 size=    2341kB time=00:00:04.39 bitrate=4364.5kbits/s dup=16 drop=0    frame=  114 fps=7.9 q=26.0 size=    2416kB time=00:00:04.56 bitrate=4335.1kbits/s dup=16 drop=0    frame=  118 fps=7.8 q=26.0 size=    2493kB time=00:00:04.69 bitrate=4351.8kbits/s dup=16 drop=0    frame=  122 fps=7.6 q=26.0 size=    2563kB time=00:00:04.84 bitrate=4335.9kbits/s dup=16 drop=0    frame=  126 fps=7.5 q=26.0 size=    2634kB time=00:00:05.14 bitrate=4196.9kbits/s dup=16 drop=0    frame=  130 fps=7.4 q=26.0 size=    2710kB time=00:00:05.26 bitrate=4213.4kbits/s dup=16 drop=0    frame=  136 fps=7.3 q=27.0 size=    3097kB time=00:00:05.46 bitrate=4646.1kbits/s dup=16 drop=0    frame=  139 fps=7.2 q=26.0 size=    3166kB time=00:00:05.56 bitrate=4657.9kbits/s dup=16 drop=0    frame=  144 fps=7.3 q=26.0 size=    3262kB time=00:00:05.76 bitrate=4639.9kbits/s dup=16 drop=0    frame=  147 fps=7.1 q=26.0 size=    3327kB time=00:00:05.93 bitrate=4595.9kbits/s dup=16 drop=0    frame=  151 fps=7.1 q=26.0 size=    3407kB time=00:00:06.14 bitrate=4542.8kbits/s dup=16 drop=0    frame=  154 fps=7.1 q=26.0 size=    3433kB time=00:00:06.18 bitrate=4546.3kbits/s dup=16 drop=0    frame=  158 fps=7.1 q=26.0 size=    3518kB time=00:00:06.33 bitrate=4548.6kbits/s dup=16 drop=0    frame=  160 fps=6.9 q=26.0 size=    3813kB time=00:00:06.42 bitrate=4864.0kbits/s dup=16 drop=0    frame=  165 fps=6.9 q=27.0 size=    3890kB time=00:00:06.57 bitrate=4850.3kbits/s dup=16 drop=0    frame=  169 fps=7.0 q=26.0 size=    3962kB time=00:00:06.72 bitrate=4829.6kbits/s dup=16 drop=0    frame=  173 fps=7.0 q=26.0 size=    4028kB time=00:00:06.97 bitrate=4730.0kbits/s dup=16 drop=0    frame=  177 fps=6.8 q=26.0 size=    4096kB time=00:00:07.12 bitrate=4708.9kbits/s dup=16 drop=0    frame=  181 fps=6.8 q=23.0 size=    4166kB time=00:00:07.27 bitrate=4691.0kbits/s dup=16 drop=0    frame=  186 fps=6.8 q=27.0 size=    4489kB time=00:00:07.40 bitrate=4967.3kbits/s dup=16 drop=0    frame=  190 fps=6.8 q=26.0 size=    4558kB time=00:00:07.55 bitrate=4944.4kbits/s dup=16 drop=0    frame=  194 fps=6.8 q=26.0 size=    4631kB time=00:00:07.72 bitrate=4912.6kbits/s dup=16 drop=0    frame=  202 fps=6.9 q=26.0 size=    4773kB time=00:00:08.12 bitrate=4810.8kbits/s dup=16 drop=0    frame=  205 fps=6.8 q=26.0 size=    4832kB time=00:00:08.23 bitrate=4806.8kbits/s dup=16 drop=0    frame=  210 fps=6.9 q=26.0 size=    5156kB time=00:00:08.34 bitrate=5063.9kbits/s dup=16 drop=0    frame=  210 fps=6.7 q=26.0 size=    5156kB time=00:00:08.36 bitrate=5051.0kbits/s dup=16 drop=0    frame=  214 fps=6.6 q=26.0 size=    5228kB time=00:00:08.51 bitrate=5031.1kbits/s dup=16 drop=0    frame=  218 fps=6.6 q=26.0 size=    5298kB time=00:00:08.72 bitrate=4974.1kbits/s dup=16 drop=0    frame=  222 fps=6.6 q=26.0 size=    5366kB time=00:00:08.93 bitrate=4917.3kbits/s dup=16 drop=0    frame=  226 fps=6.6 q=26.0 size=    5436kB time=00:00:09.08 bitrate=4900.4kbits/s dup=16 drop=0    frame=  230 fps=6.6 q=26.0 size=    5509kB time=00:00:09.23 bitrate=4886.0kbits/s dup=16 drop=0    frame=  236 fps=6.5 q=26.0 size=    5887kB time=00:00:09.42 bitrate=5114.1kbits/s dup=16 drop=0    frame=  240 fps=6.4 q=26.0 size=    5979kB time=00:00:09.57 bitrate=5113.2kbits/s dup=16 drop=0    frame=  243 fps=6.4 q=26.0 size=    6046kB time=00:00:09.74 bitrate=5079.9kbits/s dup=16 drop=0    frame=  248 fps=6.4 q=26.0 size=    6138kB time=00:00:10.00 bitrate=5025.6kbits/s dup=16 drop=0    frame=  251 fps=6.4 q=26.0 size=    6207kB time=00:00:10.09 bitrate=5039.5kbits/s dup=16 drop=0    frame=  254 fps=6.4 q=26.0 size=    6236kB time=00:00:10.17 bitrate=5020.3kbits/s dup=16 drop=0    frame=  260 fps=6.4 q=26.0 size=    6608kB time=00:00:10.36 bitrate=5221.5kbits/s dup=16 drop=0    frame=  264 fps=6.4 q=26.0 size=    6680kB time=00:00:10.53 bitrate=5192.2kbits/s dup=16 drop=0    frame=  268 fps=6.3 q=26.0 size=    6749kB time=00:00:10.81 bitrate=5111.5kbits/s dup=16 drop=0    frame=  273 fps=6.3 q=26.0 size=    6825kB time=00:00:10.94 bitrate=5108.8kbits/s dup=16 drop=0    frame=  277 fps=6.3 q=26.0 size=    6892kB time=00:00:11.09 bitrate=5089.6kbits/s dup=16 drop=0    frame=  278 fps=6.2 q=26.0 size=    6898kB time=00:00:11.17 bitrate=5055.1kbits/s dup=16 drop=0    frame=  281 fps=6.2 q=23.0 size=    6962kB time=00:00:11.22 bitrate=5082.8kbits/s dup=16 drop=0    frame=  285 fps=6.2 q=26.0 size=    7271kB time=00:00:11.37 bitrate=5238.6kbits/s dup=16 drop=0    frame=  286 fps=6.1 q=26.0 size=    7283kB time=00:00:11.37 bitrate=5247.3kbits/s dup=16 drop=0    frame=  289 fps=6.0 q=26.0 size=    7345kB time=00:00:11.54 bitrate=5213.4kbits/s dup=16 drop=0    frame=  294 fps=6.0 q=26.0 size=    7425kB time=00:00:11.81 bitrate=5146.9kbits/s dup=16 drop=0    frame=  298 fps=6.0 q=26.0 size=    7494kB time=00:00:11.96 bitrate=5129.3kbits/s dup=16 drop=0    frame=  302 fps=6.0 q=26.0 size=    7565kB time=00:00:12.13 bitrate=5105.6kbits/s dup=16 drop=0    frame=  306 fps=6.0 q=23.0 size=    7639kB time=00:00:12.26 bitrate=5101.4kbits/s dup=16 drop=0    frame=  313 fps=6.1 q=26.0 size=    7985kB time=00:00:12.45 bitrate=5250.4kbits/s dup=16 drop=0    frame=  318 fps=6.0 q=26.0 size=    8092kB time=00:00:12.75 bitrate=5196.5kbits/s dup=16 drop=0    frame=  322 fps=6.0 q=26.0 size=    8161kB time=00:00:12.90 bitrate=5179.6kbits/s dup=16 drop=0    frame=  326 fps=6.0 q=26.0 size=    8230kB time=00:00:13.05 bitrate=5163.8kbits/s dup=16 drop=0    frame=  332 fps=6.0 q=26.0 size=    8320kB time=00:00:13.24 bitrate=5145.0kbits/s dup=16 drop=0    frame=  336 fps=6.0 q=26.0 size=    8685kB time=00:00:13.41 bitrate=5301.8kbits/s dup=16 drop=0    frame=  342 fps=6.1 q=26.0 size=    8785kB time=00:00:13.73 bitrate=5238.3kbits/s dup=16 drop=0    frame=  344 fps=6.0 q=26.0 size=    8854kB time=00:00:13.82 bitrate=5246.9kbits/s dup=16 drop=0    frame=  348 fps=6.0 q=26.0 size=    8936kB time=00:00:13.97 bitrate=5238.8kbits/s dup=16 drop=0    frame=  352 fps=6.0 q=26.0 size=    9017kB time=00:00:14.10 bitrate=5238.1kbits/s dup=16 drop=0    frame=  353 fps=5.9 q=26.0 size=    9024kB time=00:00:14.10 bitrate=5242.2kbits/s dup=16 drop=0    frame=  355 fps=5.9 q=26.0 size=    9085kB time=00:00:14.20 bitrate=5238.0kbits/s dup=16 drop=0    frame=  359 fps=5.9 q=26.0 size=    9357kB time=00:00:14.35 bitrate=5339.1kbits/s dup=16 drop=0    frame=  361 fps=5.9 q=27.0 size=    9424kB time=00:00:14.40 bitrate=5361.0kbits/s dup=16 drop=0    frame=  365 fps=5.9 q=26.0 size=    9493kB time=00:00:14.67 bitrate=5298.7kbits/s dup=16 drop=0    frame=  368 fps=5.8 q=26.0 size=    9552kB time=00:00:14.78 bitrate=5292.9kbits/s dup=16 drop=0    frame=  373 fps=5.8 q=26.0 size=    9632kB time=00:00:14.89 bitrate=5299.0kbits/s dup=16 drop=0    frame=  377 fps=5.8 q=26.0 size=    9703kB time=00:00:15.04 bitrate=5284.9kbits/s dup=16 drop=0    frame=  381 fps=5.8 q=23.0 size=    9773kB time=00:00:15.18 bitrate=5270.6kbits/s dup=16 drop=0    frame=  385 fps=5.8 q=26.0 size=   10076kB time=00:00:15.33 bitrate=5381.2kbits/s dup=16 drop=0    frame=  387 fps=5.8 q=26.0 size=   10095kB time=00:00:15.50 bitrate=5332.3kbits/s dup=16 drop=0    frame=  390 fps=5.8 q=26.0 size=   10160kB time=00:00:15.61 bitrate=5329.6kbits/s dup=16 drop=0    frame=  394 fps=5.8 q=26.0 size=   10229kB time=00:00:15.76 bitrate=5315.4kbits/s dup=16 drop=0    frame=  398 fps=5.8 q=26.0 size=   10301kB time=00:00:15.91 bitrate=5302.4kbits/s dup=16 drop=0    frame=  402 fps=5.8 q=26.0 size=   10372kB time=00:00:16.04 bitrate=5296.6kbits/s dup=16 drop=0    frame=  404 fps=5.8 q=26.0 size=   10386kB time=00:00:16.17 bitrate=5261.7kbits/s dup=16 drop=0    frame=  406 fps=5.8 q=23.0 size=   10439kB time=00:00:16.21 bitrate=5274.5kbits/s dup=16 drop=0    frame=  410 fps=5.8 q=26.0 size=   10748kB time=00:00:16.36 bitrate=5380.8kbits/s dup=16 drop=0    frame=  414 fps=5.7 q=26.0 size=   10823kB time=00:00:16.66 bitrate=5321.5kbits/s dup=16 drop=0    frame=  418 fps=5.7 q=26.0 size=   10896kB time=00:00:16.72 bitrate=5336.9kbits/s dup=16 drop=0    frame=  422 fps=5.8 q=26.0 size=   10968kB time=00:00:16.87 bitrate=5324.3kbits/s dup=16 drop=0    frame=  427 fps=5.8 q=26.0 size=   11053kB time=00:00:17.08 bitrate=5298.7kbits/s dup=16 drop=0    frame=  430 fps=5.7 q=26.0 size=   11120kB time=00:00:17.15 bitrate=5311.2kbits/s dup=16 drop=0    frame=  433 fps=5.7 q=26.0 size=   11153kB time=00:00:17.30 bitrate=5280.6kbits/s dup=16 drop=0    frame=  435 fps=5.7 q=26.0 size=   11498kB time=00:00:17.45 bitrate=5397.6kbits/s dup=16 drop=0    frame=  440 fps=5.7 q=26.0 size=   11604kB time=00:00:17.64 bitrate=5388.1kbits/s dup=16 drop=0    frame=  444 fps=5.6 q=26.0 size=   11692kB time=00:00:17.77 bitrate=5389.9kbits/s dup=16 drop=0    frame=  448 fps=5.6 q=26.0 size=   11776kB time=00:00:17.92 bitrate=5383.3kbits/s dup=16 drop=0    frame=  452 fps=5.6 q=26.0 size=   11860kB time=00:00:18.06 bitrate=5377.0kbits/s dup=16 drop=0    frame=  456 fps=5.5 q=23.0 size=   11947kB time=00:00:18.24 bitrate=5365.7kbits/s dup=16 drop=0    frame=  461 fps=5.5 q=27.0 size=   12268kB time=00:00:18.49 bitrate=5433.4kbits/s dup=16 drop=0    frame=  465 fps=5.5 q=27.0 size=   12336kB time=00:00:18.64 bitrate=5420.0kbits/s dup=16 drop=0    frame=  469 fps=5.6 q=26.0 size=   12405kB time=00:00:18.79 bitrate=5407.1kbits/s dup=16 drop=0    frame=  473 fps=5.6 q=26.0 size=   12475kB time=00:00:18.92 bitrate=5400.5kbits/s dup=16 drop=0    frame=  476 fps=5.5 q=26.0 size=   12530kB time=00:00:19.02 bitrate=5394.2kbits/s dup=16 drop=0    frame=  482 fps=5.6 q=26.0 size=   12622kB time=00:00:19.22 bitrate=5379.4kbits/s dup=16 drop=0    frame=  485 fps=5.6 q=26.0 size=   12924kB time=00:00:19.43 bitrate=5447.7kbits/s dup=16 drop=0    frame=  489 fps=5.6 q=26.0 size=   12996kB time=00:00:19.60 bitrate=5430.5kbits/s dup=16 drop=0    frame=  494 fps=5.6 q=26.0 size=   13080kB time=00:00:19.73 bitrate=5429.8kbits/s dup=16 drop=0    frame=  498 fps=5.6 q=26.0 size=   13150kB time=00:00:19.86 bitrate=5423.9kbits/s dup=16 drop=0    frame=  502 fps=5.6 q=26.0 size=   13218kB time=00:00:20.01 bitrate=5411.1kbits/s dup=16 drop=0    frame=  505 fps=5.6 q=26.0 size=   13282kB time=00:00:20.18 bitrate=5391.2kbits/s dup=16 drop=0    frame=  510 fps=5.6 q=26.0 size=   13599kB time=00:00:20.45 bitrate=5445.2kbits/s dup=16 drop=0    frame=  514 fps=5.6 q=26.0 size=   13671kB time=00:00:20.60 bitrate=5434.5kbits/s dup=16 drop=0    frame=  518 fps=5.6 q=26.0 size=   13743kB time=00:00:20.75 bitrate=5423.9kbits/s dup=16 drop=0    frame=  522 fps=5.5 q=26.0 size=   13813kB time=00:00:20.90 bitrate=5412.3kbits/s dup=16 drop=0    frame=  526 fps=5.5 q=26.0 size=   13887kB time=00:00:21.03 bitrate=5408.4kbits/s dup=16 drop=0    frame=  530 fps=5.5 q=26.0 size=   13960kB time=00:00:21.18 bitrate=5398.5kbits/s dup=16 drop=0    frame=  534 fps=5.5 q=26.0 size=   14249kB time=00:00:21.39 bitrate=5455.4kbits/s dup=16 drop=0    frame=  539 fps=5.5 q=26.0 size=   14404kB time=00:00:21.61 bitrate=5460.3kbits/s dup=16 drop=0    frame=  545 fps=5.5 q=26.0 size=   14510kB time=00:00:21.80 bitrate=5452.0kbits/s dup=16 drop=0    frame=  548 fps=5.5 q=26.0 size=   14584kB time=00:00:21.90 bitrate=5452.9kbits/s dup=16 drop=0    frame=  552 fps=5.5 q=26.0 size=   14671kB time=00:00:22.05 bitrate=5448.5kbits/s dup=16 drop=0    frame=  557 fps=5.5 q=26.0 size=   14761kB time=00:00:22.31 bitrate=5419.0kbits/s dup=16 drop=0    frame=  560 fps=5.5 q=26.0 size=   15058kB time=00:00:22.46 bitrate=5491.4kbits/s dup=16 drop=0    frame=  565 fps=5.4 q=27.0 size=   15141kB time=00:00:22.61 bitrate=5485.0kbits/s dup=16 drop=0    frame=  569 fps=5.4 q=27.0 size=   15209kB time=00:00:22.74 bitrate=5478.5kbits/s dup=16 drop=0    frame=  573 fps=5.4 q=26.0 size=   15275kB time=00:00:22.89 bitrate=5466.5kbits/s dup=16 drop=0    frame=  577 fps=5.4 q=26.0 size=   15347kB time=00:00:23.04 bitrate=5456.8kbits/s dup=16 drop=0    frame=  581 fps=5.4 q=24.0 size=   15416kB time=00:00:23.31 bitrate=5416.2kbits/s dup=16 drop=0    frame=  585 fps=5.4 q=26.0 size=   15723kB time=00:00:23.40 bitrate=5503.8kbits/s dup=16 drop=0    frame=  590 fps=5.4 q=27.0 size=   15814kB time=00:00:23.53 bitrate=5505.6kbits/s dup=16 drop=0    frame=  594 fps=5.4 q=26.0 size=   15890kB time=00:00:23.78 bitrate=5472.3kbits/s dup=16 drop=0    frame=  599 fps=5.5 q=26.0 size=   15970kB time=00:00:23.97 bitrate=5455.8kbits/s dup=16 drop=0    frame=  602 fps=5.4 q=26.0 size=   16037kB time=00:00:24.06 bitrate=5459.5kbits/s dup=16 drop=0    frame=  606 fps=5.4 q=24.0 size=   16110kB time=00:00:24.25 bitrate=5441.0kbits/s dup=16 drop=0    frame=  610 fps=5.5 q=26.0 size=   16414kB time=00:00:24.40 bitrate=5509.5kbits/s dup=16 drop=0    frame=  612 fps=5.5 q=26.0 size=   16440kB time=00:00:24.49 bitrate=5499.2kbits/s dup=16 drop=0    frame=  616 fps=5.5 q=27.0 size=   16515kB time=00:00:24.61 bitrate=5495.5kbits/s dup=16 drop=0    frame=  618 fps=5.4 q=27.0 size=   16565kB time=00:00:24.72 bitrate=5488.4kbits/s dup=16 drop=0    frame=  622 fps=5.4 q=26.0 size=   16642kB time=00:00:24.85 bitrate=5485.4kbits/s dup=16 drop=0    frame=  626 fps=5.4 q=26.0 size=   16715kB time=00:00:25.00 bitrate=5476.6kbits/s dup=16 drop=0    frame=  630 fps=5.4 q=26.0 size=   16787kB time=00:00:25.21 bitrate=5453.7kbits/s dup=16 drop=0    frame=  636 fps=5.4 q=27.0 size=   17156kB time=00:00:25.40 bitrate=5531.4kbits/s dup=16 drop=0    frame=  640 fps=5.4 q=27.0 size=   17247kB time=00:00:25.55 bitrate=5528.1kbits/s dup=16 drop=0    frame=  643 fps=5.4 q=27.0 size=   17319kB time=00:00:25.72 bitrate=5514.4kbits/s dup=16 drop=0    frame=  648 fps=5.4 q=27.0 size=   17423kB time=00:00:25.92 bitrate=5506.5kbits/s dup=16 drop=0    frame=  653 fps=5.5 q=27.0 size=   17519kB time=00:00:26.19 bitrate=5478.3kbits/s dup=16 drop=0    frame=  655 fps=5.4 q=27.0 size=   17584kB time=00:00:26.30 bitrate=5476.4kbits/s dup=16 drop=0    frame=  660 fps=5.4 q=26.0 size=   17906kB time=00:00:26.45 bitrate=5545.2kbits/s dup=16 drop=0    frame=  665 fps=5.4 q=27.0 size=   17998kB time=00:00:26.56 bitrate=5551.3kbits/s dup=16 drop=0    frame=  669 fps=5.4 q=27.0 size=   18075kB time=00:00:26.73 bitrate=5539.2kbits/s dup=16 drop=0    frame=  673 fps=5.4 q=27.0 size=   18153kB time=00:00:26.88 bitrate=5532.3kbits/s dup=16 drop=0    frame=  677 fps=5.4 q=27.0 size=   18227kB time=00:00:27.13 bitrate=5502.4kbits/s dup=16 drop=0    frame=  682 fps=5.4 q=26.0 size=   18306kB time=00:00:27.28 bitrate=5496.1kbits/s dup=16 drop=0    frame=  685 fps=5.4 q=26.0 size=   18607kB time=00:00:27.43 bitrate=5556.1kbits/s dup=16 drop=0    frame=  686 fps=5.4 q=27.0 size=   18621kB time=00:00:27.45 bitrate=5555.9kbits/s dup=16 drop=0    frame=  690 fps=5.4 q=27.0 size=   18696kB time=00:00:27.56 bitrate=5556.6kbits/s dup=16 drop=0    frame=  694 fps=5.4 q=27.0 size=   18766kB time=00:00:27.73 bitrate=5543.3kbits/s dup=16 drop=0    frame=  701 fps=5.4 q=27.0 size=   18902kB time=00:00:28.09 bitrate=5511.3kbits/s dup=16 drop=0    frame=  706 fps=5.4 q=24.0 size=   18985kB time=00:00:28.24 bitrate=5506.3kbits/s dup=16 drop=0    frame=  710 fps=5.4 q=26.0 size=   19279kB time=00:00:28.39 bitrate=5562.2kbits/s dup=16 drop=0    frame=  714 fps=5.4 q=27.0 size=   19349kB time=00:00:28.52 bitrate=5557.2kbits/s dup=16 drop=0    frame=  718 fps=5.4 q=27.0 size=   19421kB time=00:00:28.67 bitrate=5548.8kbits/s dup=16 drop=0    frame=  723 fps=5.5 q=27.0 size=   19498kB time=00:00:28.97 bitrate=5513.3kbits/s dup=16 drop=0    frame=  728 fps=5.5 q=27.0 size=   19571kB time=00:00:29.16 bitrate=5497.5kbits/s dup=16 drop=0    frame=  732 fps=5.5 q=26.0 size=   19639kB time=00:00:29.29 bitrate=5492.6kbits/s dup=16 drop=0    frame=  736 fps=5.5 q=27.0 size=   19972kB time=00:00:29.44 bitrate=5557.5kbits/s dup=16 drop=0    frame=  740 fps=5.5 q=27.0 size=   20054kB time=00:00:29.58 bitrate=5552.2kbits/s dup=16 drop=0    frame=  744 fps=5.5 q=27.0 size=   20141kB time=00:00:29.73 bitrate=5548.2kbits/s dup=16 drop=0    frame=  747 fps=5.4 q=27.0 size=   20208kB time=00:00:29.90 bitrate=5534.9kbits/s dup=16 drop=0    frame=  753 fps=5.5 q=27.0 size=   20313kB time=00:00:30.16 bitrate=5516.4kbits/s dup=16 drop=0    frame=  757 fps=5.5 q=27.0 size=   20395kB time=00:00:30.31 bitrate=5511.4kbits/s dup=16 drop=0    frame=  760 fps=5.5 q=27.0 size=   20685kB time=00:00:30.40 bitrate=5574.2kbits/s dup=16 drop=0    frame=  766 fps=5.5 q=27.0 size=   20779kB time=00:00:30.61 bitrate=5560.3kbits/s dup=16 drop=0    frame=  771 fps=5.5 q=27.0 size=   20862kB time=00:00:30.82 bitrate=5544.0kbits/s dup=16 drop=0    frame=  777 fps=5.5 q=27.0 size=   20988kB time=00:00:31.10 bitrate=5527.8kbits/s dup=16 drop=0    frame=  781 fps=5.5 q=24.0 size=   21057kB time=00:00:31.25 bitrate=5519.5kbits/s dup=16 drop=0    frame=  786 fps=5.5 q=27.0 size=   21373kB time=00:00:31.38 bitrate=5579.3kbits/s dup=16 drop=0    frame=  790 fps=5.5 q=27.0 size=   21443kB time=00:00:31.55 bitrate=5567.4kbits/s dup=16 drop=0    frame=  797 fps=5.6 q=27.0 size=   21572kB time=00:00:31.95 bitrate=5529.7kbits/s dup=16 drop=0    frame=  798 fps=5.5 q=27.0 size=   21583kB time=00:00:31.97 bitrate=5528.9kbits/s dup=16 drop=0    frame=  802 fps=5.5 q=27.0 size=   21652kB time=00:00:32.12 bitrate=5520.7kbits/s dup=16 drop=0    frame=  806 fps=5.5 q=24.0 size=   21718kB time=00:00:32.25 bitrate=5515.6kbits/s dup=16 drop=0    frame=  810 fps=5.6 q=26.0 size=   22004kB time=00:00:32.40 bitrate=5562.5kbits/s dup=16 drop=0    frame=  813 fps=5.6 q=27.0 size=   22028kB time=00:00:32.51 bitrate=5550.3kbits/s dup=16 drop=0    frame=  816 fps=5.6 q=27.0 size=   22087kB time=00:00:32.61 bitrate=5547.1kbits/s dup=16 drop=0    frame=  819 fps=5.6 q=27.0 size=   22138kB time=00:00:32.78 bitrate=5530.8kbits/s dup=16 drop=0    frame=  825 fps=5.6 q=27.0 size=   22212kB time=00:00:33.04 bitrate=5506.5kbits/s dup=16 drop=0    frame=  830 fps=5.6 q=26.0 size=   22309kB time=00:00:33.21 bitrate=5502.0kbits/s dup=16 drop=0    frame=  834 fps=5.6 q=26.0 size=   22584kB time=00:00:33.36 bitrate=5544.8kbits/s dup=16 drop=0    frame=  839 fps=5.6 q=27.0 size=   22720kB time=00:00:33.57 bitrate=5543.0kbits/s dup=16 drop=0    frame=  843 fps=5.6 q=27.0 size=   22792kB time=00:00:33.70 bitrate=5539.4kbits/s dup=16 drop=0    frame=  848 fps=5.6 q=26.0 size=   22877kB time=00:00:33.98 bitrate=5514.6kbits/s dup=16 drop=0    frame=  852 fps=5.6 q=26.0 size=   22952kB time=00:00:34.13 bitrate=5508.4kbits/s dup=16 drop=0    frame=  856 fps=5.6 q=24.0 size=   23022kB time=00:00:34.26 bitrate=5504.8kbits/s dup=16 drop=0    frame=  861 fps=5.6 q=27.0 size=   23323kB time=00:00:34.41 bitrate=5552.4kbits/s dup=16 drop=0    frame=  865 fps=5.6 q=27.0 size=   23392kB time=00:00:34.56 bitrate=5544.8kbits/s dup=16 drop=0    frame=  870 fps=5.6 q=27.0 size=   23462kB time=00:00:34.83 bitrate=5517.1kbits/s dup=16 drop=0    frame=  872 fps=5.6 q=27.0 size=   23509kB time=00:00:34.94 bitrate=5511.3kbits/s dup=16 drop=0    frame=  876 fps=5.5 q=26.0 size=   23572kB time=00:00:35.09 bitrate=5502.6kbits/s dup=16 drop=0    frame=  880 fps=5.5 q=26.0 size=   23634kB time=00:00:35.22 bitrate=5497.0kbits/s dup=16 drop=0    frame=  885 fps=5.5 q=26.0 size=   23940kB time=00:00:35.37 bitrate=5544.6kbits/s dup=16 drop=0    frame=  891 fps=5.6 q=26.0 size=   24029kB time=00:00:35.66 bitrate=5518.6kbits/s dup=16 drop=0    frame=  898 fps=5.6 q=26.0 size=   24152kB time=00:00:35.92 bitrate=5507.4kbits/s dup=16 drop=0    frame=  902 fps=5.6 q=26.0 size=   24217kB time=00:00:36.09 bitrate=5496.1kbits/s dup=16 drop=0    frame=  906 fps=5.6 q=23.0 size=   24282kB time=00:00:36.20 bitrate=5494.6kbits/s dup=16 drop=0    frame=  910 fps=5.6 q=26.0 size=   24580kB time=00:00:36.37 bitrate=5535.9kbits/s dup=16 drop=0    frame=  914 fps=5.6 q=26.0 size=   24649kB time=00:00:36.52 bitrate=5528.7kbits/s dup=16 drop=0    frame=  918 fps=5.5 q=26.0 size=   24713kB time=00:00:36.82 bitrate=5498.2kbits/s dup=16 drop=0    frame=  924 fps=5.6 q=26.0 size=   24796kB time=00:00:37.01 bitrate=5487.9kbits/s dup=16 drop=0    frame=  926 fps=5.6 q=26.0 size=   24841kB time=00:00:37.09 bitrate=5485.3kbits/s dup=16 drop=0    frame=  932 fps=5.6 q=26.0 size=   24928kB time=00:00:37.29 bitrate=5476.2kbits/s dup=16 drop=0    frame=  936 fps=5.6 q=26.0 size=   25276kB time=00:00:37.44 bitrate=5530.5kbits/s dup=16 drop=0    frame=  939 fps=5.6 q=26.0 size=   25345kB time=00:00:37.61 bitrate=5520.5kbits/s dup=16 drop=0    frame=  944 fps=5.6 q=26.0 size=   25437kB time=00:00:37.80 bitrate=5512.4kbits/s dup=16 drop=0    frame=  948 fps=5.6 q=26.0 size=   25517kB time=00:00:37.93 bitrate=5510.9kbits/s dup=16 drop=0    frame=  952 fps=5.6 q=26.0 size=   25593kB time=00:00:38.08 bitrate=5505.7kbits/s dup=16 drop=0    frame=  956 fps=5.6 q=23.0 size=   25669kB time=00:00:38.22 bitrate=5500.4kbits/s dup=16 drop=0    frame=  960 fps=5.6 q=26.0 size=   25974kB time=00:00:38.37 bitrate=5544.3kbits/s dup=16 drop=0    frame=  962 fps=5.5 q=26.0 size=   25996kB time=00:00:38.46 bitrate=5536.5kbits/s dup=16 drop=0    frame=  965 fps=5.5 q=26.0 size=   26058kB time=00:00:38.65 bitrate=5522.2kbits/s dup=16 drop=0    frame=  969 fps=5.5 q=26.0 size=   26123kB time=00:00:38.80 bitrate=5514.6kbits/s dup=16 drop=0    frame=  973 fps=5.5 q=26.0 size=   26182kB time=00:00:38.95 bitrate=5506.0kbits/s dup=16 drop=0    frame=  977 fps=5.5 q=26.0 size=   26244kB time=00:00:39.08 bitrate=5501.0kbits/s dup=16 drop=0    frame=  982 fps=5.5 q=26.0 size=   26316kB time=00:00:39.23 bitrate=5495.0kbits/s dup=16 drop=0    frame=  986 fps=5.5 q=26.0 size=   26615kB time=00:00:39.38 bitrate=5536.4kbits/s dup=16 drop=0    frame=  990 fps=5.5 q=26.0 size=   26680kB time=00:00:39.70 bitrate=5505.2kbits/s dup=16 drop=0    frame=  997 fps=5.6 q=26.0 size=   26802kB time=00:00:39.91 bitrate=5500.7kbits/s dup=16 drop=0    frame= 1002 fps=5.6 q=26.0 size=   26877kB time=00:00:40.02 bitrate=5501.5kbits/s dup=16 drop=0    frame= 1006 fps=5.6 q=23.0 size=   26942kB time=00:00:40.19 bitrate=5491.3kbits/s dup=16 drop=0    frame= 1014 fps=5.6 q=26.0 size=   27314kB time=00:00:40.61 bitrate=5508.6kbits/s dup=16 drop=0    frame= 1018 fps=5.6 q=26.0 size=   27380kB time=00:00:40.76 bitrate=5501.9kbits/s dup=16 drop=0    frame= 1022 fps=5.6 q=26.0 size=   27444kB time=00:00:40.91 bitrate=5494.6kbits/s dup=16 drop=0    frame= 1026 fps=5.6 q=26.0 size=   27505kB time=00:00:41.06 bitrate=5486.7kbits/s dup=16 drop=0    frame= 1030 fps=5.6 q=26.0 size=   27574kB time=00:00:41.19 bitrate=5483.4kbits/s dup=16 drop=0    frame= 1035 fps=5.6 q=26.0 size=   27937kB time=00:00:41.42 bitrate=5524.0kbits/s dup=16 drop=0    frame= 1040 fps=5.6 q=26.0 size=   28033kB time=00:00:41.68 bitrate=5509.0kbits/s dup=16 drop=0    frame= 1043 fps=5.6 q=26.0 size=   28102kB time=00:00:41.77 bitrate=5511.3kbits/s dup=16 drop=0    frame= 1047 fps=5.6 q=26.0 size=   28178kB time=00:00:41.92 bitrate=5506.5kbits/s dup=16 drop=0    frame= 1051 fps=5.6 q=26.0 size=   28257kB time=00:00:42.06 bitrate=5502.3kbits/s dup=16 drop=0    frame= 1055 fps=5.6 q=26.0 size=   28344kB time=00:00:42.21 bitrate=5499.8kbits/s dup=16 drop=0    frame= 1058 fps=5.6 q=26.0 size=   28367kB time=00:00:42.26 bitrate=5498.7kbits/s dup=16 drop=0    frame= 1060 fps=5.6 q=26.0 size=   28665kB time=00:00:42.49 bitrate=5525.9kbits/s dup=16 drop=0    frame= 1065 fps=5.6 q=26.0 size=   28745kB time=00:00:42.62 bitrate=5524.6kbits/s dup=16 drop=0    frame= 1069 fps=5.6 q=26.0 size=   28808kB time=00:00:42.77 bitrate=5517.2kbits/s dup=16 drop=0    frame= 1073 fps=5.6 q=26.0 size=   28870kB time=00:00:42.92 bitrate=5509.9kbits/s dup=16 drop=0    frame= 1077 fps=5.6 q=26.0 size=   28933kB time=00:00:43.05 bitrate=5505.7kbits/s dup=16 drop=0    frame= 1081 fps=5.6 q=23.0 size=   29004kB time=00:00:43.22 bitrate=5497.3kbits/s dup=16 drop=0    frame= 1086 fps=5.6 q=26.0 size=   29325kB time=00:00:43.49 bitrate=5522.8kbits/s dup=16 drop=0    frame= 1090 fps=5.6 q=26.0 size=   29394kB time=00:00:43.62 bitrate=5519.5kbits/s dup=16 drop=0    frame= 1094 fps=5.6 q=26.0 size=   29462kB time=00:00:43.77 bitrate=5513.3kbits/s dup=16 drop=0    frame= 1098 fps=5.6 q=26.0 size=   29526kB time=00:00:43.94 bitrate=5503.8kbits/s dup=16 drop=0    frame= 1102 fps=5.6 q=26.0 size=   29591kB time=00:00:44.07 bitrate=5499.9kbits/s dup=16 drop=0    frame= 1105 fps=5.6 q=26.0 size=   29647kB time=00:00:44.16 bitrate=5499.7kbits/s dup=16 drop=0    frame= 1110 fps=5.6 q=26.0 size=   29968kB time=00:00:44.41 bitrate=5527.2kbits/s dup=16 drop=0    frame= 1112 fps=5.6 q=26.0 size=   29987kB time=00:00:44.56 bitrate=5512.1kbits/s dup=16 drop=0    frame= 1114 fps=5.6 q=26.0 size=   30036kB time=00:00:44.58 bitrate=5518.7kbits/s dup=16 drop=0    frame= 1118 fps=5.6 q=26.0 size=   30101kB time=00:00:44.73 bitrate=5512.0kbits/s dup=16 drop=0    frame= 1122 fps=5.6 q=26.0 size=   30166kB time=00:00:44.88 bitrate=5505.6kbits/s dup=16 drop=0    frame= 1126 fps=5.6 q=26.0 size=   30236kB time=00:00:45.01 bitrate=5502.6kbits/s dup=16 drop=0    frame= 1130 fps=5.6 q=26.0 size=   30301kB time=00:00:45.16 bitrate=5496.2kbits/s dup=16 drop=0    frame= 1136 fps=5.6 q=26.0 size=   30669kB time=00:00:45.50 bitrate=5521.3kbits/s dup=16 drop=0    frame= 1140 fps=5.6 q=26.0 size=   30755kB time=00:00:45.65 bitrate=5518.7kbits/s dup=16 drop=0    frame= 1144 fps=5.6 q=26.0 size=   30838kB time=00:00:45.78 bitrate=5518.0kbits/s dup=16 drop=0    frame= 1147 fps=5.6 q=26.0 size=   30900kB time=00:00:45.88 bitrate=5516.4kbits/s dup=16 drop=0    frame= 1152 fps=5.6 q=26.0 size=   30998kB time=00:00:46.08 bitrate=5510.7kbits/s dup=16 drop=0    frame= 1155 fps=5.6 q=26.0 size=   31066kB time=00:00:46.25 bitrate=5502.4kbits/s dup=16 drop=0    frame= 1160 fps=5.6 q=26.0 size=   31388kB time=00:00:46.44 bitrate=5536.6kbits/s dup=16 drop=0    frame= 1164 fps=5.6 q=26.0 size=   31458kB time=00:00:46.61 bitrate=5528.5kbits/s dup=16 drop=0    